<svg xmlns="http://www.w3.org/2000/svg" width="199.25" height="50.52" viewBox="0 0 199.25 50.52">
  <g id="Group_892" data-name="Group 892" transform="translate(-4175.281 -3136.85)">
    <g id="Group_887" data-name="Group 887" transform="translate(4175.281 3136.85)">
      <rect id="Rectangle_876" data-name="Rectangle 876" width="50.52" height="50.52" rx="6.317" fill="#ff4e41"/>
      <g id="Group_886" data-name="Group 886" transform="translate(10.726 11.614)">
        <path id="Path_1379" data-name="Path 1379" d="M4205.074,3159.513l-5.609-3.645-5.609,3.645a2.151,2.151,0,0,0-.991,1.81v4.3a2.149,2.149,0,0,1,.978-1.8l.018-.011.619-.4,2.2-1.427.458-.3,2.328-1.516,2.329,1.516.457.3,2.2,1.427.619.4.018.011a2.149,2.149,0,0,1,.978,1.8v-4.3A2.149,2.149,0,0,0,4205.074,3159.513Z" transform="translate(-4192.854 -3155.868)" fill="#fff"/>
        <path id="Path_1380" data-name="Path 1380" d="M4205.079,3172.136l-.017-.011-.619-.4-2.2-1.427V3183.7a1.493,1.493,0,0,1-1.77,1.77h-2.071a1.842,1.842,0,0,1-1.335-.405,1.891,1.891,0,0,1-.4-1.365v-13.406l-2.2,1.427-.618.4-.019.011a2.15,2.15,0,0,0-.978,1.8v9.94a4.85,4.85,0,0,0,1.291,3.629,5.021,5.021,0,0,0,3.66,1.26h3.3a5,5,0,0,0,3.646-1.275,4.826,4.826,0,0,0,1.305-3.615v-9.939A2.152,2.152,0,0,0,4205.079,3172.136Z" transform="translate(-4192.846 -3161.484)" fill="#fff"/>
        <g id="Group_885" data-name="Group 885" transform="translate(16.179 7.975)">
          <g id="Group_884" data-name="Group 884">
            <path id="Path_1462" data-name="Path 1462" d="M4222.523,3188.245h-2.554a.558.558,0,0,1-.631-.631v-18.056a.557.557,0,0,1,.631-.63h7.33a4.952,4.952,0,0,1,3.636,1.277,4.869,4.869,0,0,1,1.292,3.62v2.884a4.87,4.87,0,0,1-1.292,3.621,4.953,4.953,0,0,1-3.636,1.276h-3.785q-.361,0-.361.33v5.678A.558.558,0,0,1,4222.523,3188.245Zm.961-9.974h3.185a1.838,1.838,0,0,0,1.353-.406,1.89,1.89,0,0,0,.39-1.337V3174a1.941,1.941,0,0,0-.39-1.367,1.834,1.834,0,0,0-1.353-.406h-3.185a.292.292,0,0,0-.33.331v5.378A.292.292,0,0,0,4223.484,3178.271Z" transform="translate(-4219.339 -3168.927)" fill="#fff"/>
          </g>
        </g>
      </g>
    </g>
    <g id="Group_889" data-name="Group 889" transform="translate(4235.953 3142.898)">
      <g id="Group_888" data-name="Group 888" transform="translate(0)">
        <path id="Path_1463" data-name="Path 1463" d="M4285.07,3146.753h2.625q.688,0,.688.625v14.377a5.023,5.023,0,0,1-1.359,3.766,5.2,5.2,0,0,1-3.8,1.329h-3.437a5.228,5.228,0,0,1-3.813-1.313,5.047,5.047,0,0,1-1.345-3.782v-14.346a.58.58,0,0,1,.657-.656h2.656a.58.58,0,0,1,.656.656v14.159a1.968,1.968,0,0,0,.422,1.422,1.912,1.912,0,0,0,1.391.422h2.157a1.556,1.556,0,0,0,1.844-1.844v-14.159A.58.58,0,0,1,4285.07,3146.753Z" transform="translate(-4274.631 -3146.753)" fill="#ff4e41"/>
      </g>
      <path id="Path_1381" data-name="Path 1381" d="M4306.316,3173.739h-2.653q-.65,0-.651-.624v-18.878a.578.578,0,0,1,.5-.652.551.551,0,0,1,.155,0h2.653a.579.579,0,0,1,.651.5.555.555,0,0,1,0,.156v1.03h.125a2.364,2.364,0,0,1,1.217-1.264,4.186,4.186,0,0,1,1.842-.421h1.279a4.756,4.756,0,0,1,3.633,1.311,5.312,5.312,0,0,1,1.233,3.775v5.742a5.312,5.312,0,0,1-1.233,3.775,4.757,4.757,0,0,1-3.633,1.311h-1.274a4.182,4.182,0,0,1-1.841-.421,2.362,2.362,0,0,1-1.218-1.264h-.125v5.3Q4306.97,3173.739,4306.316,3173.739Zm2.808-7.677h1.374a1.554,1.554,0,0,0,1.841-1.842v-5.367a1.553,1.553,0,0,0-1.841-1.842h-1.374q-2.153,0-2.153,2.371v4.307q0,2.374,2.153,2.374Z" transform="translate(-4285.678 -3149.407)" fill="#ff4e41"/>
    </g>
    <g id="Group_890" data-name="Group 890" transform="translate(4270.325 3142.898)">
      <path id="Path_1464" data-name="Path 1464" d="M4332.759,3166.851h-1.407a.386.386,0,0,1-.437-.438V3147.19a.386.386,0,0,1,.438-.437h7.313a4.525,4.525,0,0,1,3.375,1.233,4.614,4.614,0,0,1,1.221,3.392v3.47a4.23,4.23,0,0,1-4.6,4.626h-5.156q-.313,0-.313.281v6.658A.387.387,0,0,1,4332.759,3166.851Zm.75-9.408h4.843q2.625,0,2.625-2.689v-3.281q0-2.721-2.625-2.72h-4.843q-.313,0-.313.282v8.126Q4333.2,3157.443,4333.509,3157.443Z" transform="translate(-4330.914 -3146.753)" fill="#092c4c"/>
      <path id="Path_1465" data-name="Path 1465" d="M4359.165,3169.5h-1.406a.386.386,0,0,1-.437-.437V3154a.386.386,0,0,1,.438-.437h1.406a.387.387,0,0,1,.438.438v1.25h.125a2.728,2.728,0,0,1,1.188-1.188,4.109,4.109,0,0,1,2.063-.5h1.219c.272,0,.407.146.407.438v1.157a.489.489,0,0,1-.094.328.328.328,0,0,1-.313.079h-1.687a2.726,2.726,0,0,0-2.156.844,3.347,3.347,0,0,0-.751,2.312v10.347A.387.387,0,0,1,4359.165,3169.5Z" transform="translate(-4341.195 -3149.403)" fill="#092c4c"/>
      <path id="Path_1466" data-name="Path 1466" d="M4380.653,3169.5h-2.686a4.249,4.249,0,0,1-4.627-4.626v-6.689a4.25,4.25,0,0,1,4.627-4.625h2.686a4.251,4.251,0,0,1,4.627,4.625v6.689a4.249,4.249,0,0,1-4.627,4.626Zm-2.437-2h2.188q2.625,0,2.625-2.687v-6.564q0-2.688-2.625-2.688h-2.187q-2.626,0-2.625,2.688v6.564Q4375.591,3167.5,4378.217,3167.5Z" transform="translate(-4347.431 -3149.403)" fill="#092c4c"/>
      <path id="Path_1467" data-name="Path 1467" d="M4401.287,3169.5h-1.406a.386.386,0,0,1-.438-.437V3154a.387.387,0,0,1,.438-.437h1.406a.388.388,0,0,1,.438.438v1.219h.125a3.4,3.4,0,0,1,3.314-1.657h1.155a3.883,3.883,0,0,1,3.813,2.125,3.414,3.414,0,0,1,1.58-1.578,4.949,4.949,0,0,1,2.267-.547h1.093a4.408,4.408,0,0,1,3.312,1.22,4.666,4.666,0,0,1,1.188,3.406v10.878a.386.386,0,0,1-.437.438h-1.406a.388.388,0,0,1-.438-.437v-10.784q0-2.719-2.624-2.719h-1.03a2.868,2.868,0,0,0-2.172.8,3.006,3.006,0,0,0-.766,2.173v10.533a.388.388,0,0,1-.437.438h-1.407a.386.386,0,0,1-.438-.437v-10.784q0-2.719-2.627-2.719h-1.155a2.917,2.917,0,0,0-2.157.75,2.871,2.871,0,0,0-.75,2.125v10.627A.388.388,0,0,1,4401.287,3169.5Z" transform="translate(-4357.593 -3149.403)" fill="#092c4c"/>
      <path id="Path_1468" data-name="Path 1468" d="M4446.013,3169.5h-2.687a4.248,4.248,0,0,1-4.626-4.626v-6.689a4.25,4.25,0,0,1,4.626-4.625h2.687a4.25,4.25,0,0,1,4.626,4.625v6.689a4.248,4.248,0,0,1-4.626,4.626Zm-2.437-2h2.188q2.624,0,2.625-2.687v-6.564q0-2.688-2.625-2.688h-2.187q-2.626,0-2.625,2.688v6.564Q4440.952,3167.5,4443.577,3167.5Z" transform="translate(-4372.876 -3149.403)" fill="#092c4c"/>
      <path id="Path_1469" data-name="Path 1469" d="M4464.4,3153.387h-1.717c-.292,0-.44-.135-.44-.406v-1.157a.388.388,0,0,1,.44-.437h1.717c.208,0,.313-.093.313-.281v-2.687a.387.387,0,0,1,.438-.439h1.407c.272,0,.407.146.407.439v2.687c0,.189.114.281.343.281h3.314c.313,0,.468.146.468.437v1.157c0,.271-.155.406-.468.406h-3.314c-.229,0-.343.094-.343.281v9q0,2.658,2.75,2.657h1.221c.311,0,.468.146.468.437v1.157c0,.271-.158.406-.468.406h-1.5a4.82,4.82,0,0,1-3.44-1.2,4.389,4.389,0,0,1-1.282-3.361v-9.1C4464.712,3153.481,4464.608,3153.387,4464.4,3153.387Z" transform="translate(-4382.042 -3147.23)" fill="#092c4c"/>
      <path id="Path_1470" data-name="Path 1470" d="M4493.408,3169.5h-6.626a4.249,4.249,0,0,1-4.627-4.626v-6.689a4.25,4.25,0,0,1,4.627-4.625h2.625a4.227,4.227,0,0,1,4.593,4.625v3.971c0,.312-.145.468-.437.468h-8.844q-.313,0-.313.281v1.908q0,2.718,2.625,2.719h6.377a.387.387,0,0,1,.438.437v1.125C4493.846,3169.365,4493.7,3169.5,4493.408,3169.5Zm-8.688-8.533h6.75a.277.277,0,0,0,.313-.313v-2.406q0-2.688-2.625-2.688h-2.127q-2.625,0-2.625,2.688v2.406A.277.277,0,0,0,4484.72,3160.967Z" transform="translate(-4389.794 -3149.403)" fill="#092c4c"/>
    </g>
    <g id="Group_891" data-name="Group 891" transform="translate(4236.272 3172.813)">
      <path id="Path_1471" data-name="Path 1471" d="M4276.207,3203.911h-.916c-.119,0-.161-.073-.126-.216l2.211-7.74a.284.284,0,0,1,.3-.216h1.271a.274.274,0,0,1,.305.216l2.211,7.74c.034.144-.013.216-.14.216h-.9a.222.222,0,0,1-.159-.045.334.334,0,0,1-.07-.171l-.483-1.652h-2.8l-.483,1.652C4276.4,3203.839,4276.325,3203.911,4276.207,3203.911Zm2.084-6.952-1.118,4.067h2.3l-1.131-4.067Z" transform="translate(-4275.153 -3195.739)" fill="#092c4c"/>
      <path id="Path_1472" data-name="Path 1472" d="M4288.57,3203.911h-.8a.191.191,0,0,1-.216-.216v-7.74a.191.191,0,0,1,.216-.216h3.99a.191.191,0,0,1,.216.216v.648a.191.191,0,0,1-.216.216h-2.821c-.1,0-.152.043-.152.127v2.4c0,.094.051.139.152.139h2.453c.152,0,.229.073.229.217v.635a.2.2,0,0,1-.229.229h-2.453q-.152,0-.152.127v3A.191.191,0,0,1,4288.57,3203.911Z" transform="translate(-4279.981 -3195.739)" fill="#092c4c"/>
      <path id="Path_1473" data-name="Path 1473" d="M4298.018,3203.911h-.8a.191.191,0,0,1-.216-.216v-7.74a.191.191,0,0,1,.216-.216h3.99a.191.191,0,0,1,.217.216v.648a.192.192,0,0,1-.217.216h-2.821c-.1,0-.152.043-.152.127v2.4c0,.094.051.139.152.139h2.453c.152,0,.229.073.229.217v.635a.2.2,0,0,1-.229.229h-2.453q-.152,0-.152.127v3A.191.191,0,0,1,4298.018,3203.911Z" transform="translate(-4283.659 -3195.739)" fill="#092c4c"/>
      <path id="Path_1474" data-name="Path 1474" d="M4307.784,3195.955v7.74a.191.191,0,0,1-.215.216h-.8a.191.191,0,0,1-.215-.216v-7.74a.191.191,0,0,1,.215-.216h.8A.191.191,0,0,1,4307.784,3195.955Z" transform="translate(-4287.377 -3195.739)" fill="#092c4c"/>
      <path id="Path_1475" data-name="Path 1475" d="M4316.046,3203.911h-4.117a.191.191,0,0,1-.216-.216v-7.74a.191.191,0,0,1,.216-.216h.8a.191.191,0,0,1,.216.216v6.723c0,.085.05.127.152.127h2.948q.216,0,.216.229v.661A.191.191,0,0,1,4316.046,3203.911Z" transform="translate(-4289.386 -3195.739)" fill="#092c4c"/>
      <path id="Path_1476" data-name="Path 1476" d="M4322.414,3195.955v7.74a.192.192,0,0,1-.216.216h-.8a.192.192,0,0,1-.216-.216v-7.74a.191.191,0,0,1,.216-.216h.8A.191.191,0,0,1,4322.414,3195.955Z" transform="translate(-4293.072 -3195.739)" fill="#092c4c"/>
      <path id="Path_1477" data-name="Path 1477" d="M4326.4,3203.911h-.915c-.119,0-.161-.073-.127-.216l2.212-7.74a.284.284,0,0,1,.3-.216h1.271a.275.275,0,0,1,.306.216l2.211,7.74c.034.144-.013.216-.14.216h-.9a.222.222,0,0,1-.159-.045.347.347,0,0,1-.07-.171l-.482-1.652h-2.8l-.482,1.652C4326.593,3203.839,4326.517,3203.911,4326.4,3203.911Zm2.084-6.952-1.118,4.067h2.3l-1.131-4.067Z" transform="translate(-4294.693 -3195.739)" fill="#092c4c"/>
      <path id="Path_1478" data-name="Path 1478" d="M4339.5,3203.911h-.8c-.152,0-.229-.073-.229-.216v-6.748a.112.112,0,0,0-.127-.127h-1.6c-.152,0-.229-.072-.229-.216v-.648c0-.144.077-.216.229-.216h4.715c.152,0,.229.072.229.216v.648c0,.144-.077.216-.229.216h-1.6c-.094,0-.141.043-.141.127v6.748A.191.191,0,0,1,4339.5,3203.911Z" transform="translate(-4299.042 -3195.739)" fill="#092c4c"/>
      <path id="Path_1479" data-name="Path 1479" d="M4351.059,3203.911h-4.067a.191.191,0,0,1-.216-.216v-7.74a.191.191,0,0,1,.216-.216h4.067c.135,0,.2.072.2.216v.648c0,.144-.069.216-.2.216h-2.9c-.1,0-.152.043-.152.127v2.148c0,.085.05.127.152.127h2.453q.229,0,.229.215v.649q0,.216-.229.216h-2.453c-.1,0-.152.042-.152.127v2.262c0,.093.05.14.152.14h2.9c.135,0,.2.072.2.216v.648C4351.263,3203.839,4351.194,3203.911,4351.059,3203.911Z" transform="translate(-4303.037 -3195.739)" fill="#092c4c"/>
      <path id="Path_1480" data-name="Path 1480" d="M4367.31,3195.739h1.423a.191.191,0,0,1,.216.216v7.74a.191.191,0,0,1-.216.216h-.788a.191.191,0,0,1-.216-.216v-6.418h-.051l-1.652,4.652a.28.28,0,0,1-.279.2h-.813a.273.273,0,0,1-.267-.2l-1.69-4.665h-.051v6.431a.238.238,0,0,1-.045.171.244.244,0,0,1-.171.045h-.775a.191.191,0,0,1-.216-.216v-7.74a.191.191,0,0,1,.216-.216h1.423a.212.212,0,0,1,.2.14l1.742,4.906h.063l1.754-4.906A.167.167,0,0,1,4367.31,3195.739Z" transform="translate(-4308.854 -3195.739)" fill="#092c4c"/>
      <path id="Path_1481" data-name="Path 1481" d="M4376.653,3203.911h-.916c-.118,0-.161-.073-.126-.216l2.211-7.74a.285.285,0,0,1,.3-.216h1.271a.274.274,0,0,1,.305.216l2.211,7.74c.035.144-.012.216-.139.216h-.9a.219.219,0,0,1-.159-.045.334.334,0,0,1-.07-.171l-.483-1.652h-2.8l-.483,1.652C4376.848,3203.839,4376.771,3203.911,4376.653,3203.911Zm2.083-6.952-1.118,4.067h2.3l-1.132-4.067Z" transform="translate(-4314.258 -3195.739)" fill="#092c4c"/>
      <path id="Path_1482" data-name="Path 1482" d="M4389.017,3203.911h-.8a.191.191,0,0,1-.216-.216v-7.74a.191.191,0,0,1,.216-.216h2.974a1.826,1.826,0,0,1,1.982,1.983v1.067a1.712,1.712,0,0,1-1.207,1.843v.051l1.411,2.973c.093.169.038.254-.166.254h-.788a.378.378,0,0,1-.394-.216l-1.36-2.923h-1.283c-.1,0-.152.042-.152.127v2.8A.192.192,0,0,1,4389.017,3203.911Zm.355-4.156h1.614a.826.826,0,0,0,.94-.928v-1.067a.831.831,0,0,0-.94-.94h-1.614c-.094,0-.139.043-.139.127v2.682C4389.233,3199.713,4389.278,3199.755,4389.372,3199.755Z" transform="translate(-4319.085 -3195.739)" fill="#092c4c"/>
      <path id="Path_1483" data-name="Path 1483" d="M4400.294,3203.911h-.8a.191.191,0,0,1-.216-.216v-7.74a.191.191,0,0,1,.216-.216h.8a.191.191,0,0,1,.217.216v4.029h.037a2.847,2.847,0,0,1,.331-.636l2.428-3.393a.453.453,0,0,1,.406-.216h.94q.267,0,.088.241l-2.477,3.368,2.8,4.308c.1.169.051.254-.153.254h-.711a.532.532,0,0,1-.483-.216l-2.2-3.444-1,1.182v2.262A.192.192,0,0,1,4400.294,3203.911Z" transform="translate(-4323.476 -3195.739)" fill="#092c4c"/>
      <path id="Path_1484" data-name="Path 1484" d="M4414.964,3203.911H4410.9a.191.191,0,0,1-.216-.216v-7.74a.191.191,0,0,1,.216-.216h4.066q.2,0,.2.216v.648q0,.216-.2.216h-2.9c-.1,0-.152.043-.152.127v2.148c0,.085.05.127.152.127h2.453q.229,0,.229.215v.649q0,.216-.229.216h-2.453c-.1,0-.152.042-.152.127v2.262c0,.093.05.14.152.14h2.9q.2,0,.2.216v.648C4415.167,3203.839,4415.1,3203.911,4414.964,3203.911Z" transform="translate(-4327.916 -3195.739)" fill="#092c4c"/>
      <path id="Path_1485" data-name="Path 1485" d="M4422.428,3203.911h-.8c-.152,0-.229-.073-.229-.216v-6.748a.112.112,0,0,0-.127-.127h-1.6q-.229,0-.229-.216v-.648q0-.216.229-.216h4.715c.153,0,.229.072.229.216v.648c0,.144-.076.216-.229.216h-1.6c-.094,0-.141.043-.141.127v6.748A.191.191,0,0,1,4422.428,3203.911Z" transform="translate(-4331.326 -3195.739)" fill="#092c4c"/>
      <path id="Path_1486" data-name="Path 1486" d="M4431.038,3195.955v7.74a.192.192,0,0,1-.216.216h-.8a.192.192,0,0,1-.216-.216v-7.74a.191.191,0,0,1,.216-.216h.8A.191.191,0,0,1,4431.038,3195.955Z" transform="translate(-4335.36 -3195.739)" fill="#092c4c"/>
      <path id="Path_1487" data-name="Path 1487" d="M4435.97,3203.911h-.788a.191.191,0,0,1-.216-.216v-7.74a.191.191,0,0,1,.216-.216h.711a.291.291,0,0,1,.28.14l3.076,5.528h.05v-5.452a.191.191,0,0,1,.216-.216h.788a.191.191,0,0,1,.216.216v7.74a.191.191,0,0,1-.216.216h-.686a.378.378,0,0,1-.33-.2l-3.051-5.465h-.051v5.452A.191.191,0,0,1,4435.97,3203.911Z" transform="translate(-4337.37 -3195.739)" fill="#092c4c"/>
      <path id="Path_1488" data-name="Path 1488" d="M4450.218,3203.911h-1.36a1.8,1.8,0,0,1-1.969-1.97v-4.232a1.791,1.791,0,0,1,1.969-1.969h1.36a1.791,1.791,0,0,1,1.969,1.969v.457c0,.153-.071.229-.215.229h-.8c-.145,0-.216-.076-.216-.229v-.406a.82.82,0,0,0-.915-.94h-1a.82.82,0,0,0-.915.94v4.131a.82.82,0,0,0,.915.94h1a.82.82,0,0,0,.915-.94v-1.144c0-.085-.047-.127-.14-.127h-1.029a.191.191,0,0,1-.216-.216v-.649a.191.191,0,0,1,.216-.216h2.135a.235.235,0,0,1,.266.267v2.135a1.806,1.806,0,0,1-1.969,1.97Z" transform="translate(-4342.012 -3195.739)" fill="#092c4c"/>
    </g>
  </g>
</svg>
